<svg xmlns="http://www.w3.org/2000/svg" viewBox="0 0 1200 760" role="img" aria-label="Smart crop market dashboard">
  <defs>
    <linearGradient id="sky" x1="0" x2="1" y1="0" y2="1">
      <stop offset="0" stop-color="#2eb7d7"/>
      <stop offset="0.55" stop-color="#98d2a4"/>
      <stop offset="1" stop-color="#f0c45f"/>
    </linearGradient>
    <linearGradient id="field" x1="0" x2="1">
      <stop offset="0" stop-color="#256b39"/>
      <stop offset="0.45" stop-color="#55a65d"/>
      <stop offset="1" stop-color="#cfa042"/>
    </linearGradient>
    <linearGradient id="glass" x1="0" x2="1" y1="0" y2="1">
      <stop offset="0" stop-color="#ffffff" stop-opacity="0.92"/>
      <stop offset="1" stop-color="#c7f2ea" stop-opacity="0.7"/>
    </linearGradient>
    <filter id="shadow" x="-20%" y="-20%" width="140%" height="140%">
      <feDropShadow dx="0" dy="18" stdDeviation="18" flood-color="#062317" flood-opacity="0.35"/>
    </filter>
  </defs>
  <rect width="1200" height="760" rx="28" fill="#0e1512"/>
  <rect x="34" y="34" width="1132" height="692" rx="24" fill="url(#sky)"/>
  <circle cx="1000" cy="142" r="82" fill="#ffd358"/>
  <circle cx="1000" cy="142" r="124" fill="#ffd358" opacity="0.18"/>
  <path d="M34 458 C230 340 405 364 568 454 C730 300 963 316 1166 430 L1166 726 L34 726 Z" fill="#236d3c"/>
  <path d="M34 520 C260 444 470 462 664 542 C840 445 1006 452 1166 535 L1166 726 L34 726 Z" fill="#3f9a57"/>
  <path d="M34 596 L1166 596 L1166 726 L34 726 Z" fill="url(#field)"/>
  <g opacity="0.5" stroke="#e8c666" stroke-width="4">
    <path d="M88 726 C260 642 380 616 534 596"/>
    <path d="M270 726 C450 640 650 608 924 596"/>
    <path d="M580 726 C750 650 920 614 1134 604"/>
  </g>
  <g filter="url(#shadow)">
    <rect x="152" y="392" width="364" height="190" rx="22" fill="#eaf7f4"/>
    <path d="M516 476 L620 476 C654 476 680 506 680 538 L680 582 L516 582 Z" fill="#d9f0ed"/>
    <rect x="178" y="424" width="162" height="78" rx="11" fill="#d99926"/>
    <g fill="#c1761c">
      <rect x="210" y="424" width="16" height="78"/>
      <rect x="264" y="424" width="16" height="78"/>
      <rect x="318" y="424" width="16" height="78"/>
    </g>
    <circle cx="258" cy="590" r="52" fill="#f8fbf5"/>
    <circle cx="258" cy="590" r="34" fill="#14231d"/>
    <circle cx="540" cy="590" r="52" fill="#f8fbf5"/>
    <circle cx="540" cy="590" r="34" fill="#14231d"/>
  </g>
  <g filter="url(#shadow)">
    <rect x="705" y="116" width="300" height="188" rx="20" fill="url(#glass)"/>
    <text x="735" y="160" fill="#10351f" font-family="Arial, sans-serif" font-size="25" font-weight="700">Market Signal</text>
    <path d="M740 254 L790 214 L842 232 L900 178 L968 196" fill="none" stroke="#1d7e43" stroke-width="12" stroke-linecap="round" stroke-linejoin="round"/>
    <circle cx="900" cy="178" r="12" fill="#f5b932"/>
    <text x="735" y="286" fill="#1a4d32" font-family="Arial, sans-serif" font-size="20">Demand rising today</text>
  </g>
  <g filter="url(#shadow)">
    <rect x="744" y="420" width="330" height="124" rx="18" fill="#10241b" opacity="0.96"/>
    <text x="770" y="470" fill="#72e38e" font-family="Arial, sans-serif" font-size="34" font-weight="800">AI Deal Ready</text>
    <text x="770" y="508" fill="#cce7d2" font-family="Arial, sans-serif" font-size="22">Trust + Price + Route</text>
  </g>
</svg>
